<svg width="512" height="512" viewBox="0 0 512 512" xmlns="http://www.w3.org/2000/svg" role="img" aria-label="Sift">
  <defs>
    <linearGradient id="bg" x1="0.06" y1="0" x2="0.95" y2="1">
      <stop offset="0" stop-color="#0b1c3f"/>
      <stop offset="0.52" stop-color="#0c6b6e"/>
      <stop offset="1" stop-color="#22d3ee"/>
    </linearGradient>
    <radialGradient id="sheen" cx="0.28" cy="0.16" r="0.95">
      <stop offset="0" stop-color="#ffffff" stop-opacity="0.30"/>
      <stop offset="0.5" stop-color="#ffffff" stop-opacity="0"/>
    </radialGradient>
    <linearGradient id="faceL" x1="0" y1="0" x2="0" y2="1">
      <stop offset="0" stop-color="#ffffff"/>
      <stop offset="1" stop-color="#cdf7f2"/>
    </linearGradient>
    <linearGradient id="faceR" x1="0" y1="0" x2="0" y2="1">
      <stop offset="0" stop-color="#bfeef1"/>
      <stop offset="1" stop-color="#86d6de"/>
    </linearGradient>
    <radialGradient id="glow" cx="0.5" cy="0.5" r="0.5">
      <stop offset="0" stop-color="#7af2dd" stop-opacity="0.95"/>
      <stop offset="0.55" stop-color="#2dd4bf" stop-opacity="0.32"/>
      <stop offset="1" stop-color="#2dd4bf" stop-opacity="0"/>
    </radialGradient>
  </defs>

  <rect width="512" height="512" rx="118" fill="url(#bg)"/>
  <rect width="512" height="512" rx="118" fill="url(#sheen)"/>
  <rect x="6" y="6" width="500" height="500" rx="112" fill="none" stroke="#ffffff" stroke-opacity="0.13" stroke-width="3"/>

  <circle cx="256" cy="388" r="96" fill="none" stroke="#ffffff" stroke-opacity="0.10" stroke-width="3"/>
  <circle cx="256" cy="388" r="126" fill="none" stroke="#ffffff" stroke-opacity="0.055" stroke-width="2.5"/>

  <circle cx="256" cy="92" r="27" fill="#ffffff"/>
  <circle cx="195" cy="126" r="20" fill="#ffffff" opacity="0.5"/>
  <circle cx="317" cy="126" r="20" fill="#ffffff" opacity="0.5"/>
  <circle cx="226" cy="80" r="8" fill="#ffffff" opacity="0.34"/>
  <circle cx="298" cy="86" r="6.5" fill="#ffffff" opacity="0.3"/>

  <ellipse cx="256" cy="190" rx="120" ry="17" fill="#ffffff" opacity="0.92"/>

  <path d="M136 192 L256 192 L256 374 L238 374 L238 326 Z" fill="url(#faceL)"/>
  <path d="M376 192 L256 192 L256 374 L274 374 L274 326 Z" fill="url(#faceR)"/>
  <line x1="256" y1="192" x2="256" y2="374" stroke="#ffffff" stroke-opacity="0.55" stroke-width="2.5"/>

  <circle cx="256" cy="388" r="64" fill="url(#glow)"/>
  <circle cx="256" cy="388" r="41" fill="#ffffff"/>
  <path d="M235 388 l13 15 l26 -31" fill="none" stroke="#0c6b6e" stroke-width="10" stroke-linecap="round" stroke-linejoin="round"/>
</svg>
